<mxfile host="app.diagrams.net" agent="Mozilla/5.0 (Macintosh; Intel Mac OS X 10_15_7) AppleWebKit/537.36 (KHTML, like Gecko) Chrome/131.0.0.0 Safari/537.36" version="26.0.5">
  <diagram name="Seite-1" id="VCCjs2OZxzrAaohZKN0f">
    <mxGraphModel dx="954" dy="553" grid="1" gridSize="10" guides="1" tooltips="1" connect="1" arrows="1" fold="1" page="1" pageScale="1" pageWidth="827" pageHeight="1169" math="0" shadow="0">
      <root>
        <mxCell id="0" />
        <mxCell id="1" parent="0" />
        <mxCell id="tb4fwTkjgdv9Bq9dFc_h-3" value="" style="edgeStyle=orthogonalEdgeStyle;rounded=0;orthogonalLoop=1;jettySize=auto;html=1;" edge="1" parent="1" source="tb4fwTkjgdv9Bq9dFc_h-1" target="tb4fwTkjgdv9Bq9dFc_h-2">
          <mxGeometry relative="1" as="geometry" />
        </mxCell>
        <mxCell id="tb4fwTkjgdv9Bq9dFc_h-1" value="Basla" style="ellipse;whiteSpace=wrap;html=1;" vertex="1" parent="1">
          <mxGeometry x="330" y="10" width="120" height="80" as="geometry" />
        </mxCell>
        <mxCell id="tb4fwTkjgdv9Bq9dFc_h-5" value="" style="edgeStyle=orthogonalEdgeStyle;rounded=0;orthogonalLoop=1;jettySize=auto;html=1;" edge="1" parent="1" source="tb4fwTkjgdv9Bq9dFc_h-2" target="tb4fwTkjgdv9Bq9dFc_h-4">
          <mxGeometry relative="1" as="geometry" />
        </mxCell>
        <mxCell id="tb4fwTkjgdv9Bq9dFc_h-2" value="tek toplam = 0&lt;div&gt;cift toplam = 0&lt;/div&gt;" style="rounded=0;whiteSpace=wrap;html=1;" vertex="1" parent="1">
          <mxGeometry x="300" y="120" width="180" height="70" as="geometry" />
        </mxCell>
        <mxCell id="tb4fwTkjgdv9Bq9dFc_h-6" style="edgeStyle=orthogonalEdgeStyle;rounded=0;orthogonalLoop=1;jettySize=auto;html=1;" edge="1" parent="1" source="tb4fwTkjgdv9Bq9dFc_h-4" target="tb4fwTkjgdv9Bq9dFc_h-7">
          <mxGeometry relative="1" as="geometry">
            <mxPoint x="100" y="320" as="targetPoint" />
          </mxGeometry>
        </mxCell>
        <mxCell id="tb4fwTkjgdv9Bq9dFc_h-9" value="" style="edgeStyle=orthogonalEdgeStyle;rounded=0;orthogonalLoop=1;jettySize=auto;html=1;" edge="1" parent="1" source="tb4fwTkjgdv9Bq9dFc_h-4" target="tb4fwTkjgdv9Bq9dFc_h-8">
          <mxGeometry relative="1" as="geometry" />
        </mxCell>
        <mxCell id="tb4fwTkjgdv9Bq9dFc_h-4" value="i =1; i &amp;lt; 100 ; i++&amp;nbsp;" style="shape=hexagon;perimeter=hexagonPerimeter2;whiteSpace=wrap;html=1;fixedSize=1;rounded=0;" vertex="1" parent="1">
          <mxGeometry x="278" y="230" width="224" height="65" as="geometry" />
        </mxCell>
        <mxCell id="tb4fwTkjgdv9Bq9dFc_h-29" style="edgeStyle=orthogonalEdgeStyle;rounded=0;orthogonalLoop=1;jettySize=auto;html=1;exitX=0.3;exitY=1;exitDx=0;exitDy=0;exitPerimeter=0;" edge="1" parent="1" source="tb4fwTkjgdv9Bq9dFc_h-7" target="tb4fwTkjgdv9Bq9dFc_h-28">
          <mxGeometry relative="1" as="geometry">
            <Array as="points">
              <mxPoint x="70" y="380" />
            </Array>
          </mxGeometry>
        </mxCell>
        <mxCell id="tb4fwTkjgdv9Bq9dFc_h-7" value="teksayilarintoplami = tektoplam&lt;div&gt;ciftsayilarintoplami = cifttoplam&lt;/div&gt;" style="shape=document;whiteSpace=wrap;html=1;boundedLbl=1;" vertex="1" parent="1">
          <mxGeometry x="20" y="300" width="170" height="80" as="geometry" />
        </mxCell>
        <mxCell id="tb4fwTkjgdv9Bq9dFc_h-11" value="" style="edgeStyle=orthogonalEdgeStyle;rounded=0;orthogonalLoop=1;jettySize=auto;html=1;" edge="1" parent="1" source="tb4fwTkjgdv9Bq9dFc_h-8" target="tb4fwTkjgdv9Bq9dFc_h-10">
          <mxGeometry relative="1" as="geometry" />
        </mxCell>
        <mxCell id="tb4fwTkjgdv9Bq9dFc_h-8" value="Lutfen bir sayi giriniz" style="shape=document;whiteSpace=wrap;html=1;boundedLbl=1;rounded=0;" vertex="1" parent="1">
          <mxGeometry x="330" y="320" width="120" height="80" as="geometry" />
        </mxCell>
        <mxCell id="tb4fwTkjgdv9Bq9dFc_h-13" value="" style="edgeStyle=orthogonalEdgeStyle;rounded=0;orthogonalLoop=1;jettySize=auto;html=1;" edge="1" parent="1" source="tb4fwTkjgdv9Bq9dFc_h-10" target="tb4fwTkjgdv9Bq9dFc_h-12">
          <mxGeometry relative="1" as="geometry" />
        </mxCell>
        <mxCell id="tb4fwTkjgdv9Bq9dFc_h-10" value="sayi" style="shape=parallelogram;perimeter=parallelogramPerimeter;whiteSpace=wrap;html=1;fixedSize=1;rounded=0;" vertex="1" parent="1">
          <mxGeometry x="330" y="430" width="120" height="60" as="geometry" />
        </mxCell>
        <mxCell id="tb4fwTkjgdv9Bq9dFc_h-21" value="" style="edgeStyle=orthogonalEdgeStyle;rounded=0;orthogonalLoop=1;jettySize=auto;html=1;" edge="1" parent="1" source="tb4fwTkjgdv9Bq9dFc_h-12" target="tb4fwTkjgdv9Bq9dFc_h-17">
          <mxGeometry relative="1" as="geometry" />
        </mxCell>
        <mxCell id="tb4fwTkjgdv9Bq9dFc_h-24" value="" style="edgeStyle=orthogonalEdgeStyle;rounded=0;orthogonalLoop=1;jettySize=auto;html=1;" edge="1" parent="1" source="tb4fwTkjgdv9Bq9dFc_h-12" target="tb4fwTkjgdv9Bq9dFc_h-23">
          <mxGeometry relative="1" as="geometry" />
        </mxCell>
        <mxCell id="tb4fwTkjgdv9Bq9dFc_h-12" value="sayi%2==0" style="rhombus;whiteSpace=wrap;html=1;" vertex="1" parent="1">
          <mxGeometry x="502" y="405" width="130" height="110" as="geometry" />
        </mxCell>
        <mxCell id="tb4fwTkjgdv9Bq9dFc_h-25" style="edgeStyle=orthogonalEdgeStyle;rounded=0;orthogonalLoop=1;jettySize=auto;html=1;exitX=0;exitY=1;exitDx=0;exitDy=0;entryX=1;entryY=0;entryDx=0;entryDy=0;" edge="1" parent="1" source="tb4fwTkjgdv9Bq9dFc_h-14" target="tb4fwTkjgdv9Bq9dFc_h-23">
          <mxGeometry relative="1" as="geometry">
            <Array as="points">
              <mxPoint x="754" y="280" />
              <mxPoint x="627" y="280" />
            </Array>
          </mxGeometry>
        </mxCell>
        <mxCell id="tb4fwTkjgdv9Bq9dFc_h-26" style="edgeStyle=orthogonalEdgeStyle;rounded=0;orthogonalLoop=1;jettySize=auto;html=1;" edge="1" parent="1" source="tb4fwTkjgdv9Bq9dFc_h-14" target="tb4fwTkjgdv9Bq9dFc_h-4">
          <mxGeometry relative="1" as="geometry" />
        </mxCell>
        <mxCell id="tb4fwTkjgdv9Bq9dFc_h-14" value="" style="ellipse;whiteSpace=wrap;html=1;aspect=fixed;" vertex="1" parent="1">
          <mxGeometry x="750" y="210" width="30" height="30" as="geometry" />
        </mxCell>
        <mxCell id="tb4fwTkjgdv9Bq9dFc_h-27" style="edgeStyle=orthogonalEdgeStyle;rounded=0;orthogonalLoop=1;jettySize=auto;html=1;exitX=1;exitY=0.5;exitDx=0;exitDy=0;entryX=0.5;entryY=1;entryDx=0;entryDy=0;" edge="1" parent="1" source="tb4fwTkjgdv9Bq9dFc_h-17" target="tb4fwTkjgdv9Bq9dFc_h-14">
          <mxGeometry relative="1" as="geometry" />
        </mxCell>
        <mxCell id="tb4fwTkjgdv9Bq9dFc_h-17" value="cifttoplam =&amp;nbsp;&lt;div&gt;cifttoplam + sayi&lt;/div&gt;" style="whiteSpace=wrap;html=1;" vertex="1" parent="1">
          <mxGeometry x="507" y="560" width="120" height="60" as="geometry" />
        </mxCell>
        <mxCell id="tb4fwTkjgdv9Bq9dFc_h-22" value="Evet" style="text;html=1;align=center;verticalAlign=middle;resizable=0;points=[];autosize=1;strokeColor=none;fillColor=none;" vertex="1" parent="1">
          <mxGeometry x="560" y="520" width="50" height="30" as="geometry" />
        </mxCell>
        <mxCell id="tb4fwTkjgdv9Bq9dFc_h-23" value="tektoplam =&amp;nbsp;&lt;div&gt;tektoplam + sayi&lt;/div&gt;" style="whiteSpace=wrap;html=1;" vertex="1" parent="1">
          <mxGeometry x="507" y="290" width="120" height="60" as="geometry" />
        </mxCell>
        <mxCell id="tb4fwTkjgdv9Bq9dFc_h-28" value="Bitir" style="ellipse;whiteSpace=wrap;html=1;" vertex="1" parent="1">
          <mxGeometry x="10" y="560" width="120" height="80" as="geometry" />
        </mxCell>
        <mxCell id="tb4fwTkjgdv9Bq9dFc_h-32" value="" style="edgeStyle=orthogonalEdgeStyle;rounded=0;orthogonalLoop=1;jettySize=auto;html=1;" edge="1" parent="1" source="tb4fwTkjgdv9Bq9dFc_h-30" target="tb4fwTkjgdv9Bq9dFc_h-31">
          <mxGeometry relative="1" as="geometry" />
        </mxCell>
        <mxCell id="tb4fwTkjgdv9Bq9dFc_h-30" value="oran = cift / tek" style="rounded=0;whiteSpace=wrap;html=1;" vertex="1" parent="1">
          <mxGeometry x="130" y="390" width="120" height="60" as="geometry" />
        </mxCell>
        <mxCell id="tb4fwTkjgdv9Bq9dFc_h-33" style="edgeStyle=orthogonalEdgeStyle;rounded=0;orthogonalLoop=1;jettySize=auto;html=1;entryX=1;entryY=0.5;entryDx=0;entryDy=0;" edge="1" parent="1" source="tb4fwTkjgdv9Bq9dFc_h-31" target="tb4fwTkjgdv9Bq9dFc_h-28">
          <mxGeometry relative="1" as="geometry" />
        </mxCell>
        <mxCell id="tb4fwTkjgdv9Bq9dFc_h-31" value="oran" style="shape=document;whiteSpace=wrap;html=1;boundedLbl=1;rounded=0;" vertex="1" parent="1">
          <mxGeometry x="130" y="470" width="120" height="80" as="geometry" />
        </mxCell>
      </root>
    </mxGraphModel>
  </diagram>
</mxfile>
